# xmcd
#
# Track frame offsets:
#	182
#	17305
#	35520
#	57255
#	76992
#	95010
#	110640
#	123745
#	139842
#	153970
#	172137
#	183317
#	202645
#	225902
#	244097
#	258140
#	282960
#	310027
#	327517
#
# Disc length: 4629
#
# Revision: 3
# Processed by: cddbd v1.5.1PL0 Copyright (c) Steve Scherf et al.
# Submitted via: ExactAudioCopy v0.95a4
# Normalized: r2:TDELIM( - )
#
DISCID=f9121313
DTITLE=Various Artist - Hell Of A Night With The Blues
DYEAR=1900
DGENRE=blues
TTITLE0=John Lee Hooker - Goin' Mad Blues
TTITLE1=Tommy Tucker - Hi Heel Sneakers
TTITLE2=Buster Benton and Carey Bell - Born With The Blues
TTITLE3=Maria Muldaur - Don't You Feel My Leg
TTITLE4=Billy Boy Arnold - She Fooled Me
TTITLE5=Sunnyland Slim - I Had It So Hard
TTITLE6=Bobby Bennett - When Girls Do It
TTITLE7=Paul Lamb and The blues Burglars - Late One Evening
TTITLE8=Muddy Waters - I Got My Mojo Working
TTITLE9=Roy Gaines - A Hell Of A Night
TTITLE10=Tender Slim - Don't Cut Out On Me
TTITLE11=Sonny Boy Williamson - Don't Start Me To Talkin'
TTITLE12=Johnny Young - Drivin' Wheel
TTITLE13=Troyce Key and J J Malone - It Should've Been Me
TTITLE14=The Clovers - He Sure Could Hypnotize
TTITLE15=Big Twist and The Mellow Fellows - I Wouldn't Treat A Dog The Way You Treated Me
TTITLE16=Bo Diddley - Don't Know Where I've Been
TTITLE17=Billy Boy Arnold - Just Got To Know
TTITLE18=Buster Benton - Leave Me Alone
EXTD=
EXTT0=
EXTT1=
EXTT2=
EXTT3=
EXTT4=
EXTT5=
EXTT6=
EXTT7=
EXTT8=
EXTT9=
EXTT10=
EXTT11=
EXTT12=
EXTT13=
EXTT14=
EXTT15=
EXTT16=
EXTT17=
EXTT18=
PLAYORDER=
